<svg id="visual" viewBox="0 0 960 540" width="960" height="540" xmlns="http://www.w3.org/2000/svg" xmlns:xlink="http://www.w3.org/1999/xlink" version="1.1"><rect x="0" y="0" width="960" height="540" fill="#001220"></rect><defs><linearGradient id="grad1_0" x1="43.8%" y1="0%" x2="100%" y2="100%"><stop offset="14.444444444444446%" stop-color="#715df2" stop-opacity="1"></stop><stop offset="85.55555555555554%" stop-color="#715df2" stop-opacity="1"></stop></linearGradient></defs><defs><linearGradient id="grad1_1" x1="43.8%" y1="0%" x2="100%" y2="100%"><stop offset="14.444444444444446%" stop-color="#715df2" stop-opacity="1"></stop><stop offset="85.55555555555554%" stop-color="#003f8a" stop-opacity="1"></stop></linearGradient></defs><defs><linearGradient id="grad1_2" x1="43.8%" y1="0%" x2="100%" y2="100%"><stop offset="14.444444444444446%" stop-color="#001220" stop-opacity="1"></stop><stop offset="85.55555555555554%" stop-color="#003f8a" stop-opacity="1"></stop></linearGradient></defs><defs><linearGradient id="grad2_0" x1="0%" y1="0%" x2="56.3%" y2="100%"><stop offset="14.444444444444446%" stop-color="#715df2" stop-opacity="1"></stop><stop offset="85.55555555555554%" stop-color="#715df2" stop-opacity="1"></stop></linearGradient></defs><defs><linearGradient id="grad2_1" x1="0%" y1="0%" x2="56.3%" y2="100%"><stop offset="14.444444444444446%" stop-color="#003f8a" stop-opacity="1"></stop><stop offset="85.55555555555554%" stop-color="#715df2" stop-opacity="1"></stop></linearGradient></defs><defs><linearGradient id="grad2_2" x1="0%" y1="0%" x2="56.3%" y2="100%"><stop offset="14.444444444444446%" stop-color="#003f8a" stop-opacity="1"></stop><stop offset="85.55555555555554%" stop-color="#001220" stop-opacity="1"></stop></linearGradient></defs><g transform="translate(960, 0)"><path d="M0 405C-49.8 393.1 -99.7 381.1 -150.8 364C-201.9 346.9 -254.3 324.6 -286.4 286.4C-318.4 248.1 -330.1 193.9 -346.5 143.5C-362.8 93.1 -383.9 46.6 -405 0L0 0Z" fill="#002a53"></path><path d="M0 270C-33.2 262 -66.4 254.1 -100.5 242.7C-134.6 231.3 -169.6 216.4 -190.9 190.9C-212.3 165.4 -220.1 129.3 -231 95.7C-241.9 62.1 -255.9 31 -270 0L0 0Z" fill="#2651c0"></path><path d="M0 135C-16.6 131 -33.2 127 -50.3 121.3C-67.3 115.6 -84.8 108.2 -95.5 95.5C-106.1 82.7 -110 64.6 -115.5 47.8C-120.9 31 -128 15.5 -135 0L0 0Z" fill="#715df2"></path></g><g transform="translate(0, 540)"><path d="M0 -405C50.2 -394.5 100.5 -383.9 151.9 -366.8C203.4 -349.6 256 -325.9 286.4 -286.4C316.7 -246.9 324.9 -191.6 340.9 -141.2C357 -90.9 381 -45.4 405 0L0 0Z" fill="#002a53"></path><path d="M0 -270C33.5 -263 67 -255.9 101.3 -244.5C135.6 -233.1 170.7 -217.3 190.9 -190.9C211.2 -164.6 216.6 -127.7 227.3 -94.1C238 -60.6 254 -30.3 270 0L0 0Z" fill="#2651c0"></path><path d="M0 -135C16.7 -131.5 33.5 -128 50.6 -122.3C67.8 -116.5 85.3 -108.6 95.5 -95.5C105.6 -82.3 108.3 -63.9 113.6 -47.1C119 -30.3 127 -15.1 135 0L0 0Z" fill="#715df2"></path></g></svg>